<svg id="info" viewBox="0 0 48 48" xmlns="http://www.w3.org/2000/svg">
  <path d="M24 18.0001H24.02M22 24.0001H24V32.0001H26M6 24.0001C6 26.3639 6.46558 28.7045 7.37017 30.8884C8.27475 33.0722 9.60062 35.0565 11.2721 36.728C12.9435 38.3994 14.9278 39.7253 17.1117 40.6299C19.2956 41.5345 21.6362 42.0001 24 42.0001C26.3638 42.0001 28.7044 41.5345 30.8883 40.6299C33.0722 39.7253 35.0565 38.3994 36.7279 36.728C38.3994 35.0565 39.7252 33.0722 40.6298 30.8884C41.5344 28.7045 42 26.3639 42 24.0001C42 19.2262 40.1036 14.6478 36.7279 11.2721C33.3523 7.89648 28.7739 6.00006 24 6.00006C19.2261 6.00006 14.6477 7.89648 11.2721 11.2721C7.89642 14.6478 6 19.2262 6 24.0001Z" stroke="#0F1824" stroke-width="2.4" stroke-linecap="round" stroke-linejoin="round"/>
</svg>
