<svg id="palace-resorts" viewBox="0 0 109 44" xmlns="http://www.w3.org/2000/svg">
<g id="Palace Resorts/Logo/Default">
<g id="Logo">
<path d="M13.8354 40.0048C13.4131 40.304 12.8323 40.4272 12.5332 40.4448L14.5394 43.7885H13.6947L11.6884 40.4448H8.23914V43.7885H7.5V35.8516H12.1636C12.9555 35.8516 13.2019 35.922 13.6595 36.1683C14.3106 36.5203 14.6978 37.453 14.6978 38.1394C14.6978 38.8257 14.3634 39.6 13.8178 40.0048M13.3251 36.8371C13.0435 36.6611 12.7619 36.5907 11.8468 36.5907H8.23914V39.7232H11.8468C12.6915 39.7232 13.0611 39.6704 13.3779 39.4416C13.7826 39.1425 13.9762 38.6145 13.9762 38.1218C13.9762 37.5938 13.7826 37.1186 13.3251 36.8371Z" fill="#264D69"/>
<path d="M22.4055 43.8058V35.8689H28.9345V36.6081H23.1094V39.3358H26.2948V40.0574H23.1094V43.0667H29.1985V43.8058H22.4055Z" fill="#264D69"/>
<path d="M39.8287 43.9824C39.1424 43.9824 38.456 43.8768 37.8049 43.648C36.9954 43.3665 36.5378 42.9617 35.9395 42.3633L36.4322 41.8354C37.4529 42.8737 38.4384 43.2433 39.8815 43.2433C40.9374 43.2433 42.926 42.9617 42.926 41.5362C42.926 40.5155 41.8701 40.0931 41.1486 40.0227C40.7086 39.9876 39.6527 39.9875 39.0544 39.9875C37.8577 39.97 36.5202 39.4948 36.5202 38.0693C36.5202 36.8726 37.5233 36.1687 38.5616 35.8871C39.0544 35.7463 39.5647 35.6935 40.0575 35.6935C41.2894 35.6935 42.2397 36.0983 43.2252 36.8374L42.7853 37.383C41.8173 36.767 41.131 36.4151 39.9343 36.4151C39.5999 36.4151 39.248 36.4327 38.9136 36.5207C38.1745 36.6966 37.2417 37.1894 37.2417 38.0693C37.2417 39.0372 38.2801 39.2484 39.0544 39.266C39.6879 39.2836 40.6206 39.2836 41.219 39.3364C42.5565 39.442 43.6828 40.1811 43.6828 41.5362C43.6828 43.4896 41.3774 44 39.8463 44" fill="#264D69"/>
<path d="M54.7159 43.9648C52.3401 43.9648 50.4219 42.2226 50.4219 39.8116C50.4219 37.4006 52.3401 35.6935 54.6631 35.6935C56.9861 35.6935 58.9571 37.4182 58.9571 39.8292C58.9571 42.2402 57.0565 43.9648 54.7159 43.9648ZM54.7159 36.4151C52.7977 36.4151 51.1434 37.8229 51.1434 39.794C51.1434 41.765 52.7097 43.2433 54.6983 43.2433C56.6869 43.2433 58.2532 41.8706 58.2532 39.8644C58.2532 37.8581 56.6693 36.4151 54.7159 36.4151Z" fill="#264D69"/>
<path d="M72.7731 40.0048C72.3507 40.304 71.77 40.4272 71.4708 40.4448L73.477 43.7885H72.6323L70.6261 40.4448H67.1768V43.7885H66.4376V35.8516H71.1012C71.8932 35.8516 72.1395 35.922 72.5971 36.1683C73.2482 36.5203 73.6354 37.453 73.6354 38.1394C73.6354 38.8257 73.301 39.6 72.7555 40.0048M72.2627 36.8371C71.9811 36.6611 71.6996 36.5907 70.7845 36.5907H67.1768V39.7232H70.7845C71.6292 39.7232 71.9988 39.6704 72.3155 39.4416C72.7203 39.1425 72.9139 38.6145 72.9139 38.1218C72.9139 37.5938 72.7203 37.1186 72.2627 36.8371Z" fill="#264D69"/>
<path d="M84.3338 36.5905V43.8058H83.6123V36.5905H80.5677V35.8689H87.3255V36.5905H84.3338Z" fill="#264D69"/>
<path d="M97.7628 43.9824C97.0765 43.9824 96.3901 43.8768 95.739 43.648C94.9295 43.3665 94.4719 42.9617 93.8736 42.3633L94.3663 41.8354C95.387 42.8737 96.3725 43.2433 97.8156 43.2433C98.8891 43.2433 100.86 42.9617 100.86 41.5362C100.86 40.5155 99.8042 40.0931 99.0827 40.0227C98.6427 39.9876 97.5868 39.9875 96.9885 39.9875C95.7918 39.97 94.4367 39.4948 94.4367 38.0693C94.4367 36.8726 95.4398 36.1687 96.4781 35.8871C96.9709 35.7463 97.4812 35.6935 97.974 35.6935C99.2059 35.6935 100.156 36.0983 101.124 36.8374L100.684 37.383C99.7162 36.767 99.0299 36.4151 97.8508 36.4151C97.5164 36.4151 97.1645 36.4327 96.8301 36.5207C96.091 36.6966 95.1582 37.1894 95.1582 38.0693C95.1582 39.0372 96.1965 39.2484 96.9709 39.266C97.6044 39.2836 98.5371 39.2836 99.1355 39.3364C100.473 39.442 101.599 40.1811 101.599 41.5362C101.599 43.4896 99.2939 44 97.7628 44" fill="#264D69"/>
<path d="M47.167 0.00331356L49.1908 5.68761L50.9859 2.73107L47.167 0.00331356Z" fill="#264D69"/>
<path d="M49.0678 5.33558L49.6486 6.98983C51.2501 6.91944 52.8691 6.86664 54.5234 6.86664C56.1776 6.86664 57.9375 6.91944 59.5917 6.98983L60.1021 5.31798C58.2894 5.19479 56.424 5.14199 54.5234 5.14199C52.6227 5.14199 50.8453 5.19479 49.0678 5.31798M25.4683 11.6182C31.575 9.27763 39.4943 7.58818 48.3287 7.04263L47.748 5.40597C38.3152 6.1627 30.3255 8.4505 25.4507 11.6182M61.4044 5.42357L60.894 7.06023C69.7108 7.62338 77.5773 9.29523 83.6488 11.6182C78.862 8.4681 70.8547 6.1803 61.4044 5.42357Z" fill="#264D69"/>
<path d="M61.9676 0.00331356L59.9438 5.8108L58.1488 2.74867L61.9676 0.00331356Z" fill="#264D69"/>
<path d="M54.5413 0L53.4107 1.13418L54.5448 2.2648L55.6755 1.13062L54.5413 0Z" fill="#264D69"/>
<path d="M52.9663 1.61323L51.8347 2.74642L52.9679 3.87804L54.0995 2.74484L52.9663 1.61323Z" fill="#264D69"/>
<path d="M56.1612 1.61649L55.0296 2.74968L56.1628 3.88129L57.2944 2.7481L56.1612 1.61649Z" fill="#264D69"/>
<path d="M15.5247 24.7299H9.64681V30.4846H7.65818V16.9162H15.5247C17.9181 16.9162 19.4843 18.3593 19.4843 20.7879C19.4843 23.2165 17.9005 24.7123 15.5247 24.7123M15.5247 18.8872H9.64681V22.7061H15.5423C16.8094 22.7061 17.5485 22.0902 17.5485 20.7703C17.5485 19.4504 16.8622 18.8872 15.5423 18.8872" fill="#264D69"/>
<path d="M34.2854 30.5007L32.332 26.0307H26.2429L24.2191 30.5007H22.0721L28.2315 16.8971H30.4137L36.4852 30.5007H34.2678H34.2854ZM29.305 19.3081L27.158 24.0421H31.4521L29.305 19.3081Z" fill="#264D69"/>
<path d="M40.8323 30.5007V16.8267H42.821V28.5121H51.0746V30.5007H40.8323Z" fill="#264D69"/>
<path d="M67.1415 30.5007L65.188 26.0307H59.099L57.0752 30.5007H54.9281L61.0876 16.8971H63.2698L69.3413 30.5007H67.1239H67.1415ZM62.1611 19.3081L60.0141 24.0421H64.3081L62.1611 19.3081Z" fill="#264D69"/>
<path d="M79.7072 30.8178C75.5188 30.8178 72.0695 28.0197 72.0695 23.6729C72.0695 19.5548 75.2548 16.5983 79.3025 16.5983C81.819 16.5983 84.0716 17.6542 85.8491 19.3789L84.3708 20.6283C82.9101 19.414 81.3439 18.5693 79.408 18.5693C76.4163 18.5693 74.0053 20.6283 74.0053 23.6905C74.0053 26.9814 76.7683 28.794 79.8128 28.794C81.9422 28.794 83.2621 28.0901 84.7404 26.6118L86.0427 28.0373C84.406 29.9731 82.171 30.8003 79.672 30.8003" fill="#264D69"/>
<path d="M89.9481 30.5022V16.9162H101.106V18.9224H91.9191V22.4597H96.5475V24.4308H91.9191V28.5136H101.457V30.5022H89.9481Z" fill="#264D69"/>
<path d="M106.334 35.429C107.513 35.429 108.481 36.3969 108.481 37.576C108.481 38.7551 107.513 39.723 106.334 39.723C105.155 39.723 104.187 38.7551 104.187 37.576C104.187 36.3969 105.155 35.429 106.334 35.429ZM106.334 39.4062C107.354 39.4062 108.164 38.5791 108.164 37.576C108.164 36.5729 107.337 35.7457 106.334 35.7457C105.33 35.7457 104.503 36.5553 104.503 37.576C104.503 38.5967 105.33 39.4062 106.334 39.4062ZM105.876 38.8079H105.559V36.3265H106.51C107.073 36.3265 107.284 36.5729 107.284 37.0128C107.284 37.4528 107.002 37.664 106.668 37.7168L107.407 38.8079H107.055L106.316 37.7168H105.876V38.8079ZM105.876 37.4528H106.281C106.615 37.4528 106.985 37.4352 106.985 37.0304C106.985 36.7136 106.703 36.6257 106.422 36.6257H105.876V37.4704V37.4528Z" fill="#264D69"/>
</g>
</g>
</svg>
