<svg id="warning" viewBox="0 0 80 80" xmlns="http://www.w3.org/2000/svg">
  <path d="M40.0002 30V43.3333M40.0002 53.3333H40.0335M34.5434 11.97L7.52345 57.0833C6.96643 58.048 6.67167 59.1416 6.66848 60.2555C6.66529 61.3694 6.95379 62.4647 7.50527 63.4324C8.05675 64.4002 8.852 65.2068 9.81191 65.7719C10.7718 66.3369 11.863 66.6408 12.9768 66.6533H67.0234C68.1368 66.6405 69.2274 66.3365 70.1868 65.7716C71.1463 65.2067 71.9412 64.4006 72.4926 63.4333C73.044 62.466 73.3326 61.3713 73.3298 60.2579C73.3271 59.1445 73.033 58.0512 72.4768 57.0867L45.4568 11.9667C44.8883 11.0284 44.0875 10.2525 43.1316 9.714C42.1758 9.17551 41.0972 8.89261 40.0001 8.89261C38.903 8.89261 37.8245 9.17551 36.8686 9.714C35.9128 10.2525 35.1119 11.0284 34.5434 11.9667V11.97Z" stroke="#765405" stroke-width="4" stroke-linecap="round" stroke-linejoin="round"/>
</svg>
